PathFileType	4	(X/Y/Z)	C:\Users\WrightLab\Desktop\Jo\P5V119.trc
DataRate	CameraRate	NumFrames	NumMarkers	Units	OrigDataRate	OrigDataStartFrame	OrigNumFrames
100.00	100.00	       35	19	mm	100.00	72	       569
Frame#	Time	Headset_Front			Headset_Back			Headset_Left			Headset_Right			Left_Shoulder			Right_Shoulder			Sternum			C7			Left Elbow			Right Elbow			Left Wrist			Right Wrist			Left ASIS			Right ASIS			S2			Left Knee			Right Knee			Left Ankle			Right Ankle			
		X1	Y1	Z1	X2	Y2	Z2	X3	Y3	Z3	X4	Y4	Z4	X5	Y5	Z5	X6	Y6	Z6	X7	Y7	Z7	X8	Y8	Z8	X9	Y9	Z9	X10	Y10	Z10	X11	Y11	Z11	X12	Y12	Z12	X13	Y13	Z13	X14	Y14	Z14	X15	Y15	Z15	X16	Y16	Z16	X17	Y17	Z17	X18	Y18	Z18	X19	Y19	Z19	

72	0.710				-276.59100	1637.36108	-989.34033													-176.35626	1318.63025	-1050.82202							-463.28336	1171.84399	-1180.70728	30.94986	1113.02478	-1026.19971	-358.28763	1041.16162	-1004.11334	-34.08505	932.36401	-1045.06250							15.90397	485.68658	-1092.56921	-351.66281	473.42249	-1065.68799							
73	0.720				-276.45801	1637.40088	-989.08789													-175.55167	1318.59351	-1050.82886							-463.27310	1171.83618	-1180.70422	30.94986	1113.02478	-1026.19971	-358.42413	1041.39099	-1004.19879	-33.49010	932.58118	-1044.81067							16.31254	485.74753	-1092.51074	-351.66119	473.80356	-1065.67163							
74	0.730				-276.30630	1637.61853	-988.80157													-175.42958	1318.79724	-1050.64990							-463.18130	1171.92151	-1180.41980	30.89615	1113.17896	-1026.11487	-358.65109	1041.62561	-1004.13928	-33.44168	932.59229	-1044.79590							16.82370	485.96619	-1092.40796	-351.98859	473.60101	-1065.41687							
75	0.740				-276.21170	1637.63647	-988.52728													-175.42958	1318.79724	-1050.64990							-463.14801	1171.91040	-1180.41150	30.89615	1113.17896	-1026.11487	-358.03851	1040.96790	-1004.17352	-33.39399	932.60583	-1044.78198							16.89987	485.97949	-1092.36719	-352.00583	473.60001	-1065.42456							
76	0.750				-276.15259	1637.65613	-988.51184													-175.19725	1319.17896	-1050.26807							-463.10233	1171.89673	-1180.40039	30.89615	1113.17896	-1026.11487	-358.13531	1040.71008	-1004.01331	-32.93671	932.60712	-1044.75134							17.72171	486.27936	-1092.28833	-352.11920	473.83661	-1065.58740							
77	0.760				-276.11469	1637.67346	-988.50092													-175.19725	1319.17896	-1050.26807							-462.81458	1172.07251	-1180.20569	31.10546	1113.28296	-1025.85120	-358.12051	1040.70190	-1004.00519	-32.74498	932.70532	-1044.49585							17.93264	486.24738	-1092.15649	-352.12265	473.81885	-1065.58679							
78	0.770				-276.06018	1637.59424	-988.19763													-175.19725	1319.17896	-1050.26807							-462.69925	1172.02747	-1180.17896	31.35779	1113.32275	-1025.60535	-357.88370	1040.22888	-1003.85052	-32.53130	932.62134	-1044.39636							17.90044	486.28690	-1091.72412	-351.92807	473.34192	-1065.36853							
79	0.780				-276.00757	1637.58154	-987.87671													-175.19725	1319.17896	-1050.26807							-462.55206	1171.98511	-1180.16113	31.60155	1113.22778	-1025.48035	-357.94363	1040.14502	-1003.74634	-32.50003	932.62549	-1044.38611							17.88977	486.07730	-1091.67615	-352.00531	473.55933	-1065.51221							
80	0.790				-276.01807	1637.58704	-987.87756													-175.12590	1319.26550	-1049.94348							-462.35220	1172.00940	-1180.00830	31.60155	1113.22778	-1025.48035	-357.94363	1040.14502	-1003.74634	-32.00436	932.68591	-1044.35901							17.90453	485.89890	-1091.81152	-351.48392	473.61142	-1065.47021							
81	0.800				-276.01233	1637.58582	-987.87671													-174.99249	1319.41418	-1049.24854							-461.81448	1171.69104	-1180.16931	31.60155	1113.22778	-1025.48035	-357.60269	1040.18115	-1003.71814	-31.69178	932.35168	-1044.46619							17.92187	485.88745	-1091.80042	-351.45160	473.69724	-1064.97424							
82	0.810				-276.04239	1637.59644	-987.88019													-174.97618	1319.34631	-1048.58350							-461.65506	1171.62378	-1180.12854	31.60155	1113.22778	-1025.48035	-357.34277	1040.03894	-1003.92181	-31.65366	932.35394	-1044.45300							18.13815	485.85864	-1091.63672	-351.20786	473.90582	-1064.73279							
83	0.820				-276.00543	1637.30371	-987.13293													-174.90808	1319.42004	-1048.21375							-461.41949	1171.62598	-1179.81006	32.45678	1113.28601	-1025.18201	-357.45847	1039.65869	-1003.68036	-31.03889	932.14331	-1044.36804							18.47200	485.66879	-1091.64026	-350.79767	474.12183	-1064.76746							
84	0.830				-276.05591	1636.97900	-986.70349													-174.93524	1319.32678	-1047.92969							-460.75073	1171.52612	-1179.86877	32.92952	1113.36072	-1024.72144	-357.33337	1039.90723	-1005.39319	-30.87691	931.82385	-1044.36841							19.88614	485.45984	-1090.95349	-350.78281	474.28860	-1064.39685							
85	0.840				-276.12552	1636.82910	-986.45587													-175.01241	1319.16565	-1047.82397							-460.08463	1171.67664	-1179.70813	32.92952	1113.36072	-1024.72144	-357.44867	1039.82202	-1005.42651	-30.19304	931.80841	-1043.75586							20.26247	485.49405	-1091.10876	-350.39560	474.13043	-1064.50134							
86	0.850				-276.19995	1636.80566	-986.47504													-173.92493	1318.82983	-1047.75781							-459.92377	1171.63831	-1179.65002	32.95996	1113.52405	-1024.55823	-356.84692	1039.55933	-1005.30170	-30.00977	931.49426	-1044.23181							20.39177	485.37433	-1090.64954	-350.13510	474.63818	-1063.75208							
87	0.860				-276.24570	1636.80078	-986.23889													-173.62939	1318.46472	-1047.32715							-459.50696	1171.26282	-1179.45667	33.40481	1113.59436	-1024.12488	-357.04242	1038.71484	-1003.61566	-29.78895	931.55469	-1044.00195							21.27250	485.67041	-1090.36340	-349.14590	474.49835	-1064.13098							
88	0.870				-276.31439	1636.63318	-985.75885													-173.69820	1318.30286	-1047.11023							-459.19754	1171.37573	-1179.60718	33.64227	1113.61523	-1023.90765	-357.07889	1038.85022	-1003.70532	-29.53583	931.50696	-1043.86206							21.48657	485.83545	-1090.12988	-348.51822	474.84729	-1063.38293							
89	0.880				-276.46127	1636.53223	-985.67645													-173.69820	1318.30286	-1047.11023							-458.43750	1170.84009	-1179.73022	33.17510	1113.20862	-1023.43207	-356.96158	1038.69763	-1003.01892	-29.12979	931.68207	-1043.85364							22.11378	486.00546	-1089.82227	-347.32825	475.55344	-1063.43494							
90	0.890				-276.63147	1636.21057	-985.04303													-173.58878	1318.46191	-1046.78882							-458.08606	1170.74109	-1179.69043	33.60519	1113.21362	-1023.06635	-356.95844	1038.69592	-1003.01715	-28.80293	931.50165	-1043.77344							21.83054	485.71085	-1089.09705	-345.99487	475.77765	-1062.83179							
91	0.900				-276.83994	1635.64087	-984.04266													-173.51561	1318.55200	-1046.46423							-457.69342	1170.44128	-1179.81055	33.89784	1113.40186	-1022.66205	-356.93567	1038.68311	-1003.00470	-28.74256	931.50208	-1043.75183							22.83061	485.44229	-1088.19287	-345.13245	475.80884	-1062.10266							
92	0.910				-277.12952	1635.45691	-984.02576													-173.46243	1318.54822	-1045.75928							-457.05283	1170.69104	-1180.00244	34.22059	1113.40564	-1022.38770	-357.06174	1038.55554	-1003.20160	-29.27093	930.99707	-1043.33374							23.17554	485.48364	-1087.94043	-343.93027	476.08871	-1060.36426							
93	0.920				-277.40643	1635.41223	-984.08838													-172.43819	1318.28711	-1045.00549							-456.68701	1170.78418	-1180.29871	33.36546	1113.13794	-1020.03949	-357.51666	1038.44165	-1003.29053	-29.20765	930.98987	-1043.30933							23.17769	485.01398	-1087.27393	-342.11597	476.11111	-1059.82776							
94	0.930				-277.65692	1635.25647	-983.66797													-172.43819	1318.28711	-1045.00549							-456.35364	1170.73743	-1180.28943	33.60610	1113.08887	-1019.87891	-357.39066	1038.57019	-1003.08783	-29.35397	930.77875	-1042.63440							22.87121	484.52539	-1086.05139	-339.81049	477.44354	-1058.92725							
95	0.940				-277.99911	1634.74695	-983.14484													-171.10468	1317.34912	-1044.17114							-456.42935	1170.84497	-1180.59021	33.80443	1113.15527	-1019.65631	-357.77463	1038.53723	-1003.00201	-29.18285	930.21576	-1042.35889							22.96818	484.75397	-1084.31201	-338.65039	477.99908	-1057.30786							
96	0.950				-278.45184	1634.20081	-983.12378													-170.47606	1316.66272	-1043.78113							-455.16180	1170.92908	-1180.87183	34.65804	1113.21924	-1018.89795	-358.19034	1038.50354	-1002.66638	-28.24573	929.29303	-1041.79663							23.43740	484.78976	-1083.32544	-336.81561	478.89569	-1055.47559							
97	0.960				-278.86691	1633.70337	-982.98547													-170.29350	1316.91223	-1043.13428							-454.46841	1171.00122	-1181.34497	35.27949	1112.87317	-1018.56531	-358.20392	1038.30457	-1002.38837	-28.33485	929.08032	-1041.92896							22.78369	485.00677	-1083.01392	-335.18839	479.07635	-1054.68787							
98	0.970				-279.27350	1633.10193	-982.19635													-170.70605	1316.79675	-1041.68469							-454.17639	1170.91956	-1181.91406	35.09890	1112.47095	-1017.84827	-358.22046	1038.31274	-1002.39734	-28.30073	928.51086	-1041.75037							22.76858	484.66132	-1081.77515	-332.41937	479.92233	-1052.43396							
99	0.980				-279.88779	1632.72852	-981.95142													-170.88193	1316.38025	-1041.10071							-453.81091	1171.01233	-1182.57971	35.04206	1111.94775	-1016.95331	-358.38373	1038.19324	-1002.63354	-28.83929	927.58289	-1041.49622							22.01642	484.24701	-1079.84851	-329.99359	479.96329	-1049.64709							
100	0.990				-280.60736	1632.02771	-981.37762													-171.67862	1316.20959	-1040.78650							-454.43594	1170.81445	-1182.98218	34.03901	1111.59644	-1015.86377	-358.87354	1038.26379	-1002.48975	-29.33851	926.33862	-1041.40088							20.33239	483.73306	-1079.31238	-326.43942	480.63556	-1048.19031							
101	1.000				-281.28027	1632.02954	-981.29944													-172.90297	1316.01807	-1038.88977							-453.45975	1170.56116	-1182.97998	33.77448	1110.73474	-1014.54633	-359.54898	1037.82007	-1002.18573	-29.93424	924.90118	-1041.31946							20.06952	484.07071	-1078.17212	-323.50720	481.17355	-1045.04871							
102	1.010				-282.17590	1631.40283	-980.34882													-172.81277	1314.35547	-1038.10864							-453.04514	1170.26172	-1183.03882	33.99822	1110.12219	-1014.52032	-359.81586	1037.57397	-1002.28339	-30.44267	924.43365	-1041.04089							18.96392	483.94751	-1076.28113	-317.75537	481.39771	-1043.87488							
103	1.020				-283.12994	1630.98242	-979.05798													-172.85710	1314.13391	-1037.15576							-452.83588	1169.81946	-1183.19690	34.39275	1109.78662	-1013.26953	-360.30692	1037.15051	-1002.53748	-31.08912	923.26709	-1040.55029							18.41535	483.77225	-1075.91113	-314.73453	481.18332	-1041.27319							
104	1.030				-284.17239	1630.91162	-978.70099													-173.27278	1313.58850	-1036.21814							-452.88815	1169.59497	-1183.90393	34.20691	1109.25623	-1011.44531	-360.99133	1037.08765	-1002.55383	-31.88667	922.86591	-1040.12183							15.87429	483.15451	-1075.31787	-308.94666	481.30286	-1039.47217							
105	1.040				-285.40692	1630.59045	-977.36005													-175.00531	1313.63953	-1035.68994							-452.66568	1169.29346	-1183.86475	32.84840	1108.60645	-1010.04407	-361.78024	1036.75000	-1002.58765	-31.90074	921.97687	-1039.62341							14.59294	483.39185	-1073.91870	-306.08624	483.23242	-1037.48901							
106	1.050				-286.72672	1630.20703	-976.72052													-175.92587	1312.73608	-1035.38513							-452.79642	1169.16357	-1183.85852	33.11176	1107.81543	-1008.73395	-363.59073	1036.35352	-1003.04919	-32.21104	920.96222	-1037.81055							12.58049	483.01025	-1073.19226	-301.60715	482.59619	-1035.27087							
